HIERARCHY
ROOT hip
{
  OFFSET 0 0 0
  CHANNELS 6 Xposition Yposition Zposition Zrotation Yrotation Xrotation
  JOINT abdomen
  {
    OFFSET 0 20.6881 -0.73152
    CHANNELS 3 Zrotation Xrotation Yrotation
    JOINT chest
    {
      OFFSET 0 11.7043 -0.48768
      CHANNELS 3 Zrotation Xrotation Yrotation
      JOINT neck
      {
        OFFSET 0 22.1894 -2.19456
        CHANNELS 3 Zrotation Xrotation Yrotation
        JOINT head
        {
          OFFSET -0.24384 7.07133 1.2192
          CHANNELS 3 Zrotation Xrotation Yrotation
          JOINT leftEye
          {
            OFFSET 4.14528 8.04674 8.04672
            CHANNELS 3 Zrotation Xrotation Yrotation
            End Site
            {
              OFFSET 1 0 0
            }
          }
          JOINT rightEye
          {
            OFFSET -3.6576 8.04674 8.04672
            CHANNELS 3 Zrotation Xrotation Yrotation
            End Site
            {
              OFFSET 1 0 0
            }
          }
        }
      }
      JOINT rCollar
      {
        OFFSET -2.68224 19.2634 -4.8768
        CHANNELS 3 Zrotation Xrotation Yrotation
        JOINT rShldr
        {
          OFFSET -8.77824 -1.95073 1.46304
          CHANNELS 3 Zrotation Xrotation Yrotation
          JOINT rForeArm
          {
            OFFSET -28.1742 -1.7115 0.48768
            CHANNELS 3 Zrotation Xrotation Yrotation
            JOINT rHand
            {
              OFFSET -22.5879 0.773209 7.07136
              CHANNELS 3 Zrotation Xrotation Yrotation
              JOINT rThumb1
              {
                OFFSET -1.2192 -0.487915 3.41376
                CHANNELS 3 Zrotation Xrotation Yrotation
                JOINT rThumb2
                {
                  OFFSET -3.37035 -0.52449 3.41376
                  CHANNELS 3 Zrotation Xrotation Yrotation
                  End Site
                  {
                    OFFSET -1.78271 -1.18214 1.43049
                  }
                }
              }
              JOINT rIndex1
              {
                OFFSET -7.75947 0.938293 5.60832
                CHANNELS 3 Zrotation Xrotation Yrotation
                JOINT rIndex2
                {
                  OFFSET -2.54057 -0.884171 1.56538
                  CHANNELS 3 Zrotation Xrotation Yrotation
                  End Site
                  {
                    OFFSET -1.62519 -0.234802 1.16502
                  }
                }
              }
              JOINT rMid1
              {
                OFFSET -8.24714 1.18213 3.41376
                CHANNELS 3 Zrotation Xrotation Yrotation
                JOINT rMid2
                {
                  OFFSET -3.10165 -0.590103 1.0647
                  CHANNELS 3 Zrotation Xrotation Yrotation
                  End Site
                  {
                    OFFSET -2.48547 -0.328903 0.83742
                  }
                }
              }
              JOINT rRing1
              {
                OFFSET -8.82822 0.546677 1.51678
                CHANNELS 3 Zrotation Xrotation Yrotation
                JOINT rRing2
                {
                  OFFSET -2.60934 -0.819778 -0.0198488
                  CHANNELS 3 Zrotation Xrotation Yrotation
                  End Site
                  {
                    OFFSET -2.33842 -0.294052 0.168128
                  }
                }
              }
              JOINT rPinky1
              {
                OFFSET -8.27202 -0.0477905 -0.4584
                CHANNELS 3 Zrotation Xrotation Yrotation
                JOINT rPinky2
                {
                  OFFSET -1.82734 -0.647385 -0.700984
                  CHANNELS 3 Zrotation Xrotation Yrotation
                  End Site
                  {
                    OFFSET -1.69225 -0.51767 -0.607171
                  }
                }
              }
            }
          }
        }
      }
      JOINT lCollar
      {
        OFFSET 2.68224 19.2634 -4.8768
        CHANNELS 3 Zrotation Xrotation Yrotation
        JOINT lShldr
        {
          OFFSET 8.77824 -1.95073 1.46304
          CHANNELS 3 Zrotation Xrotation Yrotation
          JOINT lForeArm
          {
            OFFSET 28.1742 -1.7115 0.48768
            CHANNELS 3 Zrotation Xrotation Yrotation
            JOINT lHand
            {
              OFFSET 22.5879 0.773209 7.07136
              CHANNELS 3 Zrotation Xrotation Yrotation
              JOINT lThumb1
              {
                OFFSET 1.2192 -0.487915 3.41376
                CHANNELS 3 Zrotation Xrotation Yrotation
                JOINT lThumb2
                {
                  OFFSET 3.37035 -0.52449 3.41376
                  CHANNELS 3 Zrotation Xrotation Yrotation
                  End Site
                  {
                    OFFSET 1.78271 -1.18214 1.43049
                  }
                }
              }
              JOINT lIndex1
              {
                OFFSET 7.75947 0.938293 5.60832
                CHANNELS 3 Zrotation Xrotation Yrotation
                JOINT lIndex2
                {
                  OFFSET 2.54057 -0.884171 1.56538
                  CHANNELS 3 Zrotation Xrotation Yrotation
                  End Site
                  {
                    OFFSET 1.62519 -0.234802 1.16502
                  }
                }
              }
              JOINT lMid1
              {
                OFFSET 8.24714 1.18213 3.41376
                CHANNELS 3 Zrotation Xrotation Yrotation
                JOINT lMid2
                {
                  OFFSET 3.10165 -0.590103 1.0647
                  CHANNELS 3 Zrotation Xrotation Yrotation
                  End Site
                  {
                    OFFSET 2.48547 -0.328903 0.83742
                  }
                }
              }
              JOINT lRing1
              {
                OFFSET 8.82822 0.546677 1.51678
                CHANNELS 3 Zrotation Xrotation Yrotation
                JOINT lRing2
                {
                  OFFSET 2.60934 -0.819778 -0.0198488
                  CHANNELS 3 Zrotation Xrotation Yrotation
                  End Site
                  {
                    OFFSET 2.33842 -0.294052 0.168128
                  }
                }
              }
              JOINT lPinky1
              {
                OFFSET 8.27202 -0.0477905 -0.4584
                CHANNELS 3 Zrotation Xrotation Yrotation
                JOINT lPinky2
                {
                  OFFSET 1.82734 -0.647385 -0.700984
                  CHANNELS 3 Zrotation Xrotation Yrotation
                  End Site
                  {
                    OFFSET 1.69225 -0.51767 -0.607171
                  }
                }
              }
            }
          }
        }
      }
    }
  }
  JOINT rButtock
  {
    OFFSET -8.77824 4.35084 1.2192
    CHANNELS 3 Zrotation Xrotation Yrotation
    JOINT rThigh
    {
      OFFSET 0 -1.70687 -2.19456
      CHANNELS 3 Zrotation Xrotation Yrotation
      JOINT rShin
      {
        OFFSET 0 -36.8199 0.73152
        CHANNELS 3 Zrotation Xrotation Yrotation
        JOINT rFoot
        {
          OFFSET 0.73152 -45.1104 -5.12064
          CHANNELS 3 Zrotation Xrotation Yrotation
          End Site
          {
            OFFSET -1.1221 -3.69964 12.103
          }
        }
      }
    }
  }
  JOINT lButtock
  {
    OFFSET 8.77824 4.35084 1.2192
    CHANNELS 3 Zrotation Xrotation Yrotation
    JOINT lThigh
    {
      OFFSET 0 -1.70687 -2.19456
      CHANNELS 3 Zrotation Xrotation Yrotation
      JOINT lShin
      {
        OFFSET 0 -36.8199 0.73152
        CHANNELS 3 Zrotation Xrotation Yrotation
        JOINT lFoot
        {
          OFFSET -0.73152 -45.1104 -5.12064
          CHANNELS 3 Zrotation Xrotation Yrotation
          End Site
          {
            OFFSET 1.1221 -3.69964 12.103
          }
        }
      }
    }
  }
}
MOTION
Frames: 9
Frame Time:	0.06666666
113.421 85.1388 222.034 0.0 0.0 0.0 0.410589 -0.00336422 0.0117806 0.113459 -0.00539517 0.0196593 1.06443e-14 0.0 -4.96961e-17 3.20043e-14 3.18055e-15 -1.33558e-16 -0.0 0.0 0.0 -0.0 0.0 0.0 5.41576e-15 4.27076e-18 1.49089e-16 1.12914e-13 0.0 5.96354e-16 1.93184e-12 -5.76078e-13 -1.90833e-14 2.20848e-11 5.81346e-13 -8.26944e-14 5.20964e-11 1.32615e-14 -2.16278e-13 8.99513e-11 2.54444e-14 -3.7292e-13 5.21003e-11 1.47101e-14 -2.29e-13 7.73091 5.47488 0.417314 5.20961e-11 1.27222e-14 -2.13097e-13 2.90554 0.965183 0.102902 5.21008e-11 1.32192e-14 -2.11507e-13 10.2786 0.731801 0.0259123 5.20879e-11 1.59028e-14 -2.00375e-13 2.22167 -0.733487 -0.20892 5.21957e-15 4.27076e-18 -2.48481e-16 1.10585e-13 -7.45443e-17 -5.96354e-16 1.92712e-12 5.78463e-13 -3.18055e-14 2.2088e-11 -5.74711e-13 -4.45278e-14 5.21003e-11 7.42609e-15 -2.00375e-13 8.9991e-11 1.59028e-14 -3.53837e-13 5.20959e-11 6.75868e-15 -1.94014e-13 -7.73091 5.47488 -0.417314 5.21001e-11 7.45443e-15 -2.06736e-13 -2.90554 0.965183 -0.102902 5.20971e-11 7.25564e-15 -2.05146e-13 -10.2786 0.731801 -0.0259123 5.21058e-11 7.95139e-15 -2.19458e-13 -2.22167 -0.733487 0.20892 -2.03217e-16 0.0 -3.88251e-19 0.770626 -4.17183 -0.0656823 -0.00265502 2.00554 -0.0182716 -0.461851 2.16688 0.0961038 2.03217e-16 0.0 3.88251e-19 -0.143214 -2.55995 0.026068 0.00716305 -0.914088 0.0621705 0.453752 3.47457 -0.121222
115.107 83.2285 217.375 178.091 -0.9825 -152.718 -7.93527 -33.3743 -3.07463 3.15272 13.958 -1.18114 4.3124 10.0694 -2.55498 -2.68759 -14.9779 -6.42794 -0.0 0.0 0.0 -0.0 0.0 0.0 6.61275e-14 1.52666e-13 8.13029e-14 84.4288 5.44755 -2.91196 -12.8999 -6.10005 23.3656 -0.000285952 0.482855 0.0678624 -6.87603e-10 1.77033e-09 -1.36599e-09 -1.19026e-09 3.06253e-09 -2.35974e-09 -6.87601e-10 1.77033e-09 -1.36601e-09 7.73091 5.47488 0.417314 -6.87603e-10 1.77033e-09 -1.36599e-09 2.90554 0.965183 0.102902 -6.87597e-10 1.77033e-09 -1.36599e-09 10.2786 0.731801 0.0259123 -6.87604e-10 1.77033e-09 -1.36598e-09 2.22167 -0.733487 -0.20892 6.60687e-14 1.52667e-13 8.11041e-14 -76.6433 19.8125 -4.93422 8.88405 -3.4903 -15.7247 0.0696555 7.50887 -1.06145 -1.44333e-09 1.52492e-10 1.45486e-09 -2.48387e-09 2.71677e-10 2.52401e-09 -1.44334e-09 1.52482e-10 1.45487e-09 -7.73091 5.47488 -0.417314 -1.44334e-09 1.52482e-10 1.45485e-09 -2.90554 0.965183 -0.102902 -1.44334e-09 1.52482e-10 1.45485e-09 -10.2786 0.731801 -0.0259123 -1.44332e-09 1.5249e-10 1.45486e-09 -2.22167 -0.733487 0.20892 -2.03217e-16 0.0 -3.88251e-19 1.59188 -27.563 6.65051 -0.000583505 7.68501 0.167818 -2.57583 -15.5329 -6.89526 2.03217e-16 0.0 3.88251e-19 -3.1435 -27.0288 -9.91901 0.010821 6.49898 -0.0757638 0.805651 -4.23546 2.4867
115.129 83.2299 217.386 178.118 -0.9783 -152.694 -7.76772 -33.3648 -3.02444 3.02041 13.9284 -1.1651 4.29378 9.96898 -2.46005 -2.26627 -14.8881 -6.19849 -0.0 0.0 0.0 -0.0 0.0 0.0 3.38604e-14 7.9412e-14 4.8109e-14 84.5399 5.03404 -3.01372 -12.778 -6.00948 23.1261 -0.000751109 0.761819 0.107073 -4.46255e-10 8.80625e-10 -6.53434e-10 -7.71972e-10 1.52291e-09 -1.12835e-09 -4.46251e-10 8.80626e-10 -6.53448e-10 7.73091 5.47488 0.417314 -4.46255e-10 8.80626e-10 -6.53436e-10 2.90554 0.965183 0.102902 -4.46245e-10 8.80626e-10 -6.53437e-10 10.2786 0.731801 0.0259123 -4.4625e-10 8.80624e-10 -6.53431e-10 2.22167 -0.733487 -0.20892 3.37162e-14 7.94163e-14 4.78574e-14 -76.5985 19.2366 -4.82241 8.61273 -3.34049 -15.2237 0.0796807 8.03275 -1.13644 -7.44018e-10 -3.45346e-12 6.5607e-10 -1.28084e-09 -2.16755e-12 1.13807e-09 -7.44035e-10 -3.45902e-12 6.56074e-10 -7.73091 5.47488 -0.417314 -7.4403e-10 -3.45911e-12 6.56062e-10 -2.90554 0.965183 -0.102902 -7.44033e-10 -3.46051e-12 6.56063e-10 -10.2786 0.731801 -0.0259123 -7.44012e-10 -3.45086e-12 6.56063e-10 -2.22167 -0.733487 0.20892 -2.03217e-16 0.0 -3.88251e-19 1.60273 -27.6858 6.23444 -0.0013689 7.80474 0.168499 -2.44912 -15.6983 -6.43572 2.03217e-16 0.0 3.88251e-19 -3.05217 -27.143 -9.80945 0.00918214 6.60222 -0.0770566 0.789185 -4.24163 2.36491
115.181 83.2231 217.4 178.216 -1.0632 -152.66 -7.64389 -33.3485 -2.96209 2.94423 13.9016 -1.14854 4.30749 9.78141 -2.36662 -1.94756 -14.6925 -5.99373 -0.0 0.0 0.0 -0.0 0.0 0.0 -1.14439e-15 -3.30014e-18 1.06847e-14 84.6219 4.68072 -3.11073 -12.6697 -5.92956 22.9138 -0.00122777 1.00047 0.140621 -2.64322e-10 8.10405e-12 -1.46783e-11 -4.57011e-10 1.3406e-11 -2.4274e-11 -2.64318e-10 8.11041e-12 -1.46942e-11 7.73091 5.47488 0.417314 -2.64323e-10 8.10853e-12 -1.46814e-11 2.90554 0.965183 0.102902 -2.6431e-10 8.10783e-12 -1.4683e-11 10.2786 0.731801 0.0259123 -2.64314e-10 8.10207e-12 -1.46783e-11 2.22167 -0.733487 -0.20892 -1.34053e-15 2.71776e-18 1.03865e-14 -76.561 18.736 -4.71157 8.35781 -3.20153 -14.7558 0.0901434 8.53301 -1.20827 -1.24741e-10 -1.68935e-10 -1.08559e-10 -2.15523e-10 -2.92322e-10 -1.87403e-10 -1.24756e-10 -1.68936e-10 -1.08556e-10 -7.73091 5.47488 -0.417314 -1.24752e-10 -1.68937e-10 -1.08562e-10 -2.90554 0.965183 -0.102902 -1.24755e-10 -1.68938e-10 -1.08565e-10 -10.2786 0.731801 -0.0259123 -1.24738e-10 -1.68929e-10 -1.08568e-10 -2.22167 -0.733487 0.20892 -2.03217e-16 0.0 -3.88251e-19 1.62118 -27.8094 5.90181 -0.00166422 7.92986 0.169249 -2.33672 -15.8057 -6.0459 2.03217e-16 0.0 3.88251e-19 -2.93799 -27.2645 -9.63859 0.00792634 6.71753 -0.0786235 0.771563 -4.26013 2.21934
115.256 83.2247 217.404 178.122 -0.6234 -152.683 -7.78432 -33.3513 -2.86889 3.05519 13.9712 -1.12352 4.45799 9.54382 -2.38957 -2.20499 -14.4045 -6.10429 -0.0 0.0 0.0 -0.0 0.0 0.0 6.03194e-14 1.90634e-13 5.32929e-14 84.6271 4.35219 -3.19331 -12.5905 -5.87139 22.7589 -0.00194096 1.26499 0.177811 -1.37583e-09 1.48444e-09 -1.65022e-09 -2.38241e-09 2.56757e-09 -2.84815e-09 -1.37582e-09 1.48445e-09 -1.65024e-09 7.73091 5.47488 0.417314 -1.37583e-09 1.48444e-09 -1.65023e-09 2.90554 0.965183 0.102902 -1.37581e-09 1.48444e-09 -1.65023e-09 10.2786 0.731801 0.0259123 -1.37582e-09 1.48444e-09 -1.65022e-09 2.22167 -0.733487 -0.20892 6.02289e-14 1.90636e-13 5.30662e-14 -76.5579 18.4513 -4.58694 8.19173 -3.11253 -14.4516 0.0974101 8.8609 -1.25546 -1.97481e-09 -2.6167e-10 1.20159e-09 -3.40155e-09 -4.45746e-10 2.09125e-09 -1.97482e-09 -2.6167e-10 1.20159e-09 -7.73091 5.47488 -0.417314 -1.97482e-09 -2.61673e-10 1.20158e-09 -2.90554 0.965183 -0.102902 -1.97482e-09 -2.61671e-10 1.20158e-09 -10.2786 0.731801 -0.0259123 -1.97481e-09 -2.61666e-10 1.20158e-09 -2.22167 -0.733487 0.20892 -2.03217e-16 0.0 -3.88251e-19 1.64454 -27.8068 6.18621 -0.00342335 7.94152 0.169548 -2.37557 -15.6831 -6.20492 2.03217e-16 0.0 3.88251e-19 -2.87827 -27.2553 -9.51149 0.0107407 6.7275 -0.0794616 0.786253 -4.34695 2.27666
115.279 83.2274 217.403 178.145 -0.6767 -152.729 -7.94508 -33.3417 -2.81243 3.19989 14.0477 -1.11035 4.59455 9.34886 -2.44094 -2.5645 -14.1481 -6.27837 -0.0 0.0 0.0 -0.0 0.0 0.0 1.15797e-13 3.81668e-13 9.29815e-14 84.5874 4.09948 -3.2513 -12.5227 -5.82198 22.6263 -0.00272817 1.49124 0.209628 -2.31915e-09 3.03205e-09 -3.36429e-09 -4.01721e-09 5.24523e-09 -5.80854e-09 -2.31915e-09 3.03205e-09 -3.36431e-09 7.73091 5.47488 0.417314 -2.31915e-09 3.03205e-09 -3.36429e-09 2.90554 0.965183 0.102902 -2.31914e-09 3.03205e-09 -3.36429e-09 10.2786 0.731801 0.0259123 -2.31915e-09 3.03205e-09 -3.36428e-09 2.22167 -0.733487 -0.20892 1.15795e-13 3.81666e-13 9.28324e-14 -76.6061 18.0895 -4.43447 8.06588 -3.04623 -14.221 0.104696 9.1891 -1.30274 -3.76465e-09 -2.28752e-10 2.74742e-09 -6.48188e-09 -3.81174e-10 4.77705e-09 -3.76465e-09 -2.28752e-10 2.74743e-09 -7.73091 5.47488 -0.417314 -3.76465e-09 -2.28758e-10 2.74742e-09 -2.90554 0.965183 -0.102902 -3.76465e-09 -2.28752e-10 2.74742e-09 -10.2786 0.731801 -0.0259123 -3.76464e-09 -2.28751e-10 2.74742e-09 -2.22167 -0.733487 0.20892 -2.03217e-16 0.0 -3.88251e-19 1.6954 -27.7861 6.62329 -0.00461108 7.94622 0.17056 -2.46562 -15.5568 -6.53101 2.03217e-16 0.0 3.88251e-19 -2.82548 -27.2405 -9.3998 0.0140216 6.74319 -0.0804256 0.801862 -4.4451 2.34063
115.326 83.2243 217.424 178.155 -0.7545 -152.668 -7.90488 -33.2786 -2.88763 3.25209 14.067 -1.13719 4.5579 9.34964 -2.46611 -2.64638 -14.1028 -6.33567 -0.0 0.0 0.0 -0.0 0.0 0.0 7.03741e-14 3.22825e-13 5.1069e-14 84.503 3.99439 -3.2443 -12.4476 -5.76751 22.4795 -0.00324372 1.62212 0.228036 -1.57494e-09 2.52973e-09 -3.04781e-09 -2.73037e-09 4.37675e-09 -5.26428e-09 -1.57494e-09 2.52973e-09 -3.04783e-09 7.73091 5.47488 0.417314 -1.57495e-09 2.52973e-09 -3.0478e-09 2.90554 0.965183 0.102902 -1.57494e-09 2.52973e-09 -3.04781e-09 10.2786 0.731801 0.0259123 -1.57495e-09 2.52973e-09 -3.04781e-09 2.22167 -0.733487 -0.20892 7.02427e-14 3.22827e-13 5.09044e-14 -76.7616 17.281 -4.2199 7.96599 -2.99374 -14.0388 0.115522 9.64342 -1.36839 -3.00859e-09 5.0927e-11 2.87882e-09 -5.17481e-09 1.01194e-10 4.9996e-09 -3.00859e-09 5.09263e-11 2.87883e-09 -7.73091 5.47488 -0.417314 -3.00859e-09 5.09202e-11 2.87882e-09 -2.90554 0.965183 -0.102902 -3.00859e-09 5.09254e-11 2.87882e-09 -10.2786 0.731801 -0.0259123 -3.00858e-09 5.09267e-11 2.87881e-09 -2.22167 -0.733487 0.20892 -2.03217e-16 0.0 -3.88251e-19 1.82831 -27.8131 6.93047 -0.00298202 8.02511 0.174014 -2.56866 -15.6544 -6.82676 2.03217e-16 0.0 3.88251e-19 -2.74361 -27.3105 -9.32351 0.0147536 6.85499 -0.0822073 0.792852 -4.50833 2.26625
115.354 83.2217 217.421 178.171 -0.7579 -152.744 -7.81597 -33.2165 -2.99353 3.26173 14.0459 -1.17256 4.48182 9.40174 -2.48034 -2.65557 -14.1146 -6.35499 -0.0 0.0 0.0 -0.0 0.0 0.0 6.34494e-16 2.32177e-13 -9.93923e-16 84.4226 3.93914 -3.2534 -12.383 -5.72093 22.3537 -0.00355687 1.70266 0.239365 -5.50455e-10 1.83997e-09 -2.64114e-09 -9.59148e-10 3.18405e-09 -4.56515e-09 -5.50456e-10 1.83998e-09 -2.64115e-09 7.73091 5.47488 0.417314 -5.50458e-10 1.83998e-09 -2.64114e-09 2.90554 0.965183 0.102902 -5.50449e-10 1.83998e-09 -2.64114e-09 10.2786 0.731801 0.0259123 -5.50458e-10 1.83998e-09 -2.64114e-09 2.22167 -0.733487 -0.20892 3.59434e-16 2.32182e-13 -1.19271e-15 -76.9184 16.3935 -3.99682 7.85781 -2.93775 -13.8411 0.129729 10.2156 -1.45128 -1.96417e-09 4.55042e-10 3.06952e-09 -3.36801e-09 7.98796e-10 5.32289e-09 -1.96417e-09 4.55041e-10 3.06952e-09 -7.73091 5.47488 -0.417314 -1.96417e-09 4.55036e-10 3.06952e-09 -2.90554 0.965183 -0.102902 -1.96417e-09 4.55039e-10 3.06952e-09 -10.2786 0.731801 -0.0259123 -1.96416e-09 4.55042e-10 3.0695e-09 -2.22167 -0.733487 0.20892 -2.03217e-16 0.0 -3.88251e-19 1.94532 -27.8926 7.09655 -0.00115493 8.13543 0.17771 -2.64594 -15.8008 -7.02059 2.03217e-16 0.0 3.88251e-19 -2.67222 -27.4315 -9.24137 0.0148934 7.0075 -0.0842972 0.772391 -4.56052 2.12618
115.394 83.2164 217.444 178.205 -0.6954 -152.697 -7.76077 -33.2032 -3.04682 3.22897 13.9579 -1.19034 4.46153 9.38817 -2.47847 -2.68568 -14.07 -6.35534 -0.0 0.0 0.0 -0.0 0.0 0.0 -5.9338e-14 3.02648e-13 -9.59757e-15 84.4026 3.84832 -3.37822 -12.3438 -5.69211 22.277 -0.00377712 1.75364 0.246535 -2.3233e-10 2.65043e-09 -4.16384e-09 -4.14589e-10 4.58667e-09 -7.1994e-09 -2.32329e-10 2.65044e-09 -4.16385e-09 7.73091 5.47488 0.417314 -2.32331e-10 2.65044e-09 -4.16384e-09 2.90554 0.965183 0.102902 -2.32324e-10 2.65044e-09 -4.16384e-09 10.2786 0.731801 0.0259123 -2.32331e-10 2.65043e-09 -4.16383e-09 2.22167 -0.733487 -0.20892 -5.96044e-14 3.0265e-13 -9.79325e-15 -76.9805 15.6774 -3.80507 7.68725 -2.85019 -13.5301 0.1522 11.0726 -1.57591 -2.57664e-09 1.1e-09 5.14431e-09 -4.40511e-09 1.92294e-09 8.91587e-09 -2.57664e-09 1.09999e-09 5.14431e-09 -7.73091 5.47488 -0.417314 -2.57664e-09 1.09999e-09 5.14431e-09 -2.90554 0.965183 -0.102902 -2.57664e-09 1.09999e-09 5.1443e-09 -10.2786 0.731801 -0.0259123 -2.57663e-09 1.1e-09 5.14429e-09 -2.22167 -0.733487 0.20892 -2.03217e-16 0.0 -3.88251e-19 1.94049 -28.0759 6.95084 -0.00173093 8.25596 0.179249 -2.6111 -15.8703 -6.88609 2.03217e-16 0.0 3.88251e-19 -2.63952 -27.621 -9.09227 0.0155885 7.18934 -0.0865413 0.741753 -4.61324 1.92201
